<svg width="330" height="50" viewBox="0 0 330 50" fill="none" xmlns="http://www.w3.org/2000/svg">
<g clip-path="url(#clip0_222_108)">
<path d="M26.4108 2.54832V10.8761C40.9987 10.8761 52.8216 23.3196 52.8216 38.6624H26.4108V47.5382H69.1735V2.54832H26.4108Z" fill="#353635"/>
<path d="M26.4108 16.1698V10.8761H0V38.6624H26.4108V33.3686H10.0634C10.0634 23.8677 17.3848 16.165 26.4154 16.165L26.4108 16.1698Z" fill="#353635"/>
<path d="M26.4108 16.1698C30.9261 16.1698 34.5868 20.0212 34.5868 24.7716C34.5868 29.5221 30.9261 33.3734 26.4108 33.3734V16.1698V16.1698Z" fill="#353635"/>
<path d="M124.467 5.92845C116.584 5.92845 110.19 12.6551 110.19 20.9491C110.19 29.2432 116.584 35.9698 124.467 35.9698C126.876 35.9698 129.143 35.3399 131.131 34.2341V35.9698H138.745V20.0212H138.713C138.256 12.1598 132.054 5.93326 124.463 5.93326L124.467 5.92845ZM124.467 27.9642C120.789 27.9642 117.804 24.8245 117.804 20.9539C117.804 17.0834 120.789 13.9436 124.467 13.9436C128.146 13.9436 131.131 17.0834 131.131 20.9539C131.131 24.8245 128.146 27.9642 124.467 27.9642Z" fill="#353635"/>
<path d="M185.113 20.9491V20.0163H185.081C184.624 12.155 178.422 5.92845 170.831 5.92845C163.24 5.92845 156.554 12.6551 156.554 20.9491C156.554 29.2432 162.948 35.9698 170.831 35.9698C173.24 35.9698 175.507 35.3399 177.495 34.2341V35.9698H185.109V20.9491H185.113ZM170.836 27.9594C167.157 27.9594 164.173 24.8197 164.173 20.9491C164.173 17.0786 167.157 13.9388 170.836 13.9388C174.515 13.9388 177.499 17.0786 177.499 20.9491C177.499 24.8197 174.515 27.9594 170.836 27.9594Z" fill="#353635"/>
<path d="M247.157 20.9491V20.0163H247.125C246.668 12.155 240.467 5.92845 232.876 5.92845C225.285 5.92845 218.598 12.6551 218.598 20.9491C218.598 29.2432 224.992 35.9698 232.876 35.9698C235.284 35.9698 237.551 35.3399 239.539 34.2341V35.9698H247.153V20.9491H247.157ZM232.88 27.9594C229.201 27.9594 226.217 24.8197 226.217 20.9491C226.217 17.0786 229.201 13.9388 232.88 13.9388C236.559 13.9388 239.543 17.0786 239.543 20.9491C239.543 24.8197 236.559 27.9594 232.88 27.9594V27.9594Z" fill="#353635"/>
<path d="M202.324 5.92845C194.738 5.92845 188.536 12.155 188.075 20.0163H188.043V20.9491V45.6294H195.656V34.2341C197.644 35.3399 199.916 35.9698 202.32 35.9698C210.203 35.9698 216.597 29.2432 216.597 20.9491C216.597 12.6551 210.203 5.92845 202.32 5.92845H202.324ZM202.324 27.9642C198.645 27.9642 195.661 24.8245 195.661 20.9539C195.661 17.0834 198.645 13.9436 202.324 13.9436C206.003 13.9436 208.988 17.0834 208.988 20.9539C208.988 24.8245 206.003 27.9642 202.324 27.9642Z" fill="#353635"/>
<path d="M326.39 18.8143C324.699 17.7036 322.761 17.3045 321.052 16.9535C320.023 16.742 318.876 16.5064 318.25 16.1698C318.241 16.165 318.227 16.1602 318.218 16.1554C317.61 15.8429 317.551 15.3236 317.551 14.9726C317.551 13.9292 318.579 13.1599 319.703 13.1599C320.828 13.1599 321.723 13.9965 321.737 15.0303H329.186C329.186 9.99134 324.932 5.89479 319.703 5.89479C314.475 5.89479 310.22 9.99134 310.22 15.0303C310.22 19.324 312.236 21.603 313.931 22.7618C315.275 23.685 316.82 24.0552 318.268 24.3437C318.428 24.3725 320.759 24.9255 321.107 25.0745C321.755 25.3486 322.203 25.714 322.304 26.2285C322.592 27.7094 321.381 28.5893 319.831 28.5893C318.282 28.5893 317.085 27.5603 317.03 26.2717C317.016 26.1948 317.003 26.1227 317.003 26.0458H309.407C309.407 31.4886 314.027 35.9169 319.708 35.9169C325.389 35.9169 330.009 31.4886 330.009 26.0458C330.009 22.031 328.044 19.8961 326.394 18.8143H326.39Z" fill="#353635"/>
<path d="M294.006 5.92845C286.122 5.92845 279.729 12.6551 279.729 20.9491C279.729 29.2432 286.122 35.9698 294.006 35.9698C301.889 35.9698 308.283 29.2432 308.283 20.9491C308.283 12.6551 301.889 5.92845 294.006 5.92845V5.92845ZM294.006 27.9642C290.327 27.9642 287.342 24.8245 287.342 20.9539C287.342 17.0834 290.327 13.9436 294.006 13.9436C297.685 13.9436 300.669 17.0834 300.669 20.9539C300.669 24.8245 297.685 27.9642 294.006 27.9642Z" fill="#353635"/>
<path d="M148.68 0H141.066V27.2863C141.066 31.7146 144.476 35.3015 148.685 35.3015H155.252V27.2911H148.68V0Z" fill="#353635"/>
<path d="M110.57 8.41427L105.186 2.75026L100.515 7.66419C98.3949 6.4862 95.959 5.84671 93.3815 5.93326C85.9824 6.17847 79.9224 12.4579 79.5842 20.2375C79.2049 28.8585 85.7356 35.9698 93.8476 35.9698C93.9893 35.9698 94.1264 35.965 94.2681 35.9602L96.8502 36.0275H96.9416C98.5092 36.0275 99.7842 37.369 99.7842 39.0182C99.7842 40.6674 98.5092 42.0088 96.9416 42.0088H90.7536C89.1861 42.0088 87.911 40.6674 87.911 39.0182V37.4074H80.3155V39.0182C80.3155 45.0716 84.9998 50 90.7536 50H96.9416C102.695 50 107.38 45.0716 107.38 39.0182C107.38 35.965 106.192 33.2051 104.272 31.2097C106.662 28.5268 108.125 24.9207 108.125 20.9491V20.0163C107.978 17.5113 107.247 15.1745 106.073 13.1503L110.574 8.41427H110.57ZM87.1752 20.9491C87.1752 17.0786 90.1595 13.9388 93.8385 13.9388C97.5174 13.9388 100.502 17.0786 100.502 20.9491C100.502 24.8197 97.5174 27.9594 93.8385 27.9594C90.1595 27.9594 87.1752 24.8197 87.1752 20.9491Z" fill="#353635"/>
<path d="M280.597 8.41427L275.213 2.75026L270.543 7.66419C268.422 6.4862 265.986 5.84671 263.409 5.93326C256.01 6.17847 249.95 12.4579 249.611 20.2375C249.232 28.8585 255.763 35.9698 263.875 35.9698C264.016 35.9698 264.154 35.965 264.295 35.9602L266.877 36.0275H266.969C268.536 36.0275 269.811 37.369 269.811 39.0182C269.811 40.6674 268.536 42.0088 266.969 42.0088H260.781C259.213 42.0088 257.938 40.6674 257.938 39.0182V37.4074H250.343V39.0182C250.343 45.0716 255.027 50 260.781 50H266.969C272.723 50 277.407 45.0716 277.407 39.0182C277.407 35.965 276.219 33.2051 274.299 31.2097C276.689 28.5268 278.152 24.9207 278.152 20.9491V20.0163C278.006 17.5113 277.274 15.1745 276.1 13.1503L280.601 8.41427H280.597ZM257.202 20.9491C257.202 17.0786 260.187 13.9388 263.866 13.9388C267.545 13.9388 270.529 17.0786 270.529 20.9491C270.529 24.8197 267.545 27.9594 263.866 27.9594C260.187 27.9594 257.202 24.8197 257.202 20.9491Z" fill="#353635"/>
</g>
<defs>
<clipPath id="clip0_222_108">
<rect width="330" height="50" fill="white"/>
</clipPath>
</defs>
</svg>
